{"accessors" : [{"bufferView" : 0, "byteOffset" : 0, "componentType" : 5123, "count" : 7620, "type" : "SCALAR", "max" : [7619], "min" : [0]}, {"bufferView" : 1, "byteOffset" : 0, "componentType" : 5126, "count" : 7620, "type" : "VEC3", "max" : [0.30133500695228577, 0.35740000009536743, 0.08466040343046188], "min" : [-0.30123499035835266, 0.28841298818588257, 0.08220779895782471], "name" : "POSITION"}, {"bufferView" : 1, "byteOffset" : 12, "componentType" : 5126, "count" : 7620, "type" : "VEC3", "max" : [1.0000044107437134, 1.0000044107437134, 1.0000044107437134], "min" : [-1.0000044107437134, -1.0000044107437134, -1.0000044107437134], "name" : "NORMAL"}, {"bufferView" : 0, "byteOffset" : 15240, "componentType" : 5123, "count" : 6, "type" : "SCALAR", "max" : [5], "min" : [0]}, {"bufferView" : 2, "byteOffset" : 0, "componentType" : 5126, "count" : 6, "type" : "VEC3", "max" : [2.746619939804077, 3.576280117034912, 0.0785650983452797], "min" : [-2.746619939804077, 0.408268004655838, 0.07856489717960358], "name" : "POSITION"}, {"bufferView" : 2, "byteOffset" : 12, "componentType" : 5126, "count" : 6, "type" : "VEC3", "max" : [1.1368533169703581E-14, 6.349932135663039E-08, -1.0000044107437134], "min" : [0, 6.349930004034832E-08, -1.0000044107437134], "name" : "NORMAL"}, {"bufferView" : 0, "byteOffset" : 15252, "componentType" : 5123, "count" : 792, "type" : "SCALAR", "max" : [656], "min" : [0]}, {"bufferView" : 3, "byteOffset" : 0, "componentType" : 5126, "count" : 657, "type" : "VEC3", "max" : [2.8492801189422607, 1.0999699831008911, -0.001164159970358014], "min" : [2.8062500953674316, 0.38959699869155884, -0.03140589967370033], "name" : "POSITION"}, {"bufferView" : 3, "byteOffset" : 12, "componentType" : 5126, "count" : 657, "type" : "VEC3", "max" : [0.9990677833557129, 0.9997259378433228, 0.9855034947395325], "min" : [-0.9990677833557129, -0.9997259378433228, -0.9785991311073303], "name" : "NORMAL"}, {"bufferView" : 0, "byteOffset" : 16836, "componentType" : 5123, "count" : 420, "type" : "SCALAR", "max" : [419], "min" : [0]}, {"bufferView" : 4, "byteOffset" : 0, "componentType" : 5126, "count" : 420, "type" : "VEC3", "max" : [2.8827900886535645, 3.718640089035034, 0.08209899812936783], "min" : [-2.8827900886535645, 0.2659110128879547, 0.008794359862804413], "name" : "POSITION"}, {"bufferView" : 4, "byteOffset" : 12, "componentType" : 5126, "count" : 420, "type" : "VEC3", "max" : [1.0000044107437134, 1.0000044107437134, 1.0000044107437134], "min" : [-1.0000044107437134, -1.0000044107437134, -1.0000044107437134], "name" : "NORMAL"}, {"bufferView" : 0, "byteOffset" : 17676, "componentType" : 5123, "count" : 47016, "type" : "SCALAR", "max" : [37928], "min" : [0]}, {"bufferView" : 5, "byteOffset" : 0, "componentType" : 5126, "count" : 37929, "type" : "VEC3", "max" : [-1.1252100467681885, 1.2542099952697754, -0.04316670075058937], "min" : [-1.5445799827575684, 0.8249549865722656, -0.09309100359678268], "name" : "POSITION"}, {"bufferView" : 5, "byteOffset" : 12, "componentType" : 5126, "count" : 37929, "type" : "VEC3", "max" : [0.999973475933075, 1.0000044107437134, 0.999681293964386], "min" : [-0.999973475933075, -1.0000044107437134, -0.999681293964386], "name" : "NORMAL"}, {"bufferView" : 0, "byteOffset" : 111708, "componentType" : 5123, "count" : 21876, "type" : "SCALAR", "max" : [17080], "min" : [0]}, {"bufferView" : 6, "byteOffset" : 0, "componentType" : 5126, "count" : 17081, "type" : "VEC3", "max" : [2.8883700370788574, 3.724030017852783, 0.0499878004193306], "min" : [-2.8883700370788574, 0.26051801443099976, -0.18814300000667572], "name" : "POSITION"}, {"bufferView" : 6, "byteOffset" : 12, "componentType" : 5126, "count" : 17081, "type" : "VEC3", "max" : [1.0000044107437134, 1.0000044107437134, 1.0000044107437134], "min" : [-1.0000044107437134, -1.0000044107437134, -1.0000044107437134], "name" : "NORMAL"}], "asset" : {"generator" : "Aspose.3D 22.7", "version" : "2.0"}, "buffers" : [{"uri" : "data:application/octet-stream;base64,", "byteLength" : 2021008}], "bufferViews" : [{"buffer" : 0, "byteOffset" : 0, "byteLength" : 155460, "target" : 34963}, {"buffer" : 0, "byteOffset" : 155464, "byteLength" : 182880, "byteStride" : 24, "target" : 34962}, {"buffer" : 0, "byteOffset" : 338348, "byteLength" : 144, "byteStride" : 24, "target" : 34962}, {"buffer" : 0, "byteOffset" : 338496, "byteLength" : 19008, "byteStride" : 24, "target" : 34962}, {"buffer" : 0, "byteOffset" : 357508, "byteLength" : 10080, "byteStride" : 24, "target" : 34962}, {"buffer" : 0, "byteOffset" : 367592, "byteLength" : 1128384, "byteStride" : 24, "target" : 34962}, {"buffer" : 0, "byteOffset" : 1495980, "byteLength" : 525024, "byteStride" : 24, "target" : 34962}], "materials" : [{"name" : "White_Emissive", "pbrMetallicRoughness" : {"baseColorFactor" : [0.1568627450980392, 0.1568627450980392, 0.1568627450980392, 1], "metallicFactor" : 0, "roughnessFactor" : 0}, "emissiveFactor" : [0.12941176470588237, 0.12941176470588237, 0.12941176470588237], "alphaMode" : "OPAQUE", "doubleSided" : false}, {"name" : "GrayDark_Matte", "pbrMetallicRoughness" : {"baseColorFactor" : [0.10999999999999999, 0.10999999999999999, 0.10999999999999999, 1], "metallicFactor" : 0, "roughnessFactor" : 0}, "emissiveFactor" : [0, 0, 0], "alphaMode" : "OPAQUE", "doubleSided" : false}, {"name" : "Black_Shiny", "pbrMetallicRoughness" : {"baseColorFactor" : [0, 0, 0, 1], "metallicFactor" : 0, "roughnessFactor" : 0}, "emissiveFactor" : [0, 0, 0], "alphaMode" : "OPAQUE", "doubleSided" : false}, {"name" : "Black_Shiny", "pbrMetallicRoughness" : {"baseColorFactor" : [0, 0, 0, 1], "metallicFactor" : 0, "roughnessFactor" : 0}, "emissiveFactor" : [0, 0, 0], "alphaMode" : "OPAQUE", "doubleSided" : false}, {"name" : "Metallic", "pbrMetallicRoughness" : {"baseColorFactor" : [0.32941176470588235, 0.32941176470588235, 0.32941176470588235, 1], "metallicFactor" : 0, "roughnessFactor" : 0}, "emissiveFactor" : [0, 0, 0], "alphaMode" : "OPAQUE", "doubleSided" : false}, {"name" : "Black_Matte", "pbrMetallicRoughness" : {"baseColorFactor" : [0.10999999999999999, 0.10999999999999999, 0.10999999999999999, 1], "metallicFactor" : 0, "roughnessFactor" : 0}, "emissiveFactor" : [0, 0, 0], "alphaMode" : "OPAQUE", "doubleSided" : false}], "meshes" : [{"primitives" : [{"attributes" : {"POSITION" : 1, "NORMAL" : 2}, "indices" : 0, "material" : 0, "mode" : 4}], "name" : "Logo-mesh"}, {"primitives" : [{"attributes" : {"POSITION" : 4, "NORMAL" : 5}, "indices" : 3, "material" : 1, "mode" : 4}], "name" : "LCD-mesh"}, {"primitives" : [{"attributes" : {"POSITION" : 7, "NORMAL" : 8}, "indices" : 6, "material" : 2, "mode" : 4}], "name" : "Buttons-mesh"}, {"primitives" : [{"attributes" : {"POSITION" : 10, "NORMAL" : 11}, "indices" : 9, "material" : 3, "mode" : 4}], "name" : "Front_Bevel-mesh"}, {"primitives" : [{"attributes" : {"POSITION" : 13, "NORMAL" : 14}, "indices" : 12, "material" : 4, "mode" : 4}], "name" : "Connectors-mesh"}, {"primitives" : [{"attributes" : {"POSITION" : 16, "NORMAL" : 17}, "indices" : 15, "material" : 5, "mode" : 4}], "name" : "Back-mesh"}], "nodes" : [{"mesh" : 0, "name" : "Logo"}, {"matrix" : [0.25, 0, 0, 0, 0, 7.08192329118773E-17, -0.25, 0, 0, 0.25, 7.08192329118773E-17, 0, 0, 0, 0, 1], "mesh" : 1, "name" : "LCD"}, {"children" : [1], "name" : "Group"}, {"mesh" : 2, "name" : "Buttons"}, {"mesh" : 3, "name" : "Front_Bevel"}, {"mesh" : 4, "name" : "Connectors"}, {"mesh" : 5, "name" : "Back"}], "scene" : 0, "scenes" : [{"nodes" : [0, 2, 3, 4, 5, 6]}]}