{"accessors" : [{"bufferView" : 0, "byteOffset" : 0, "componentType" : 5123, "count" : 1296, "type" : "SCALAR", "max" : [1079], "min" : [0]}, {"bufferView" : 1, "byteOffset" : 0, "componentType" : 5126, "count" : 1080, "type" : "VEC3", "max" : [113.98694610595703, 5.089628219604492, 113.98694610595703], "min" : [-113.98694610595703, -5.089628219604492, -113.98694610595703], "name" : "POSITION"}, {"bufferView" : 1, "byteOffset" : 12, "componentType" : 5126, "count" : 1080, "type" : "VEC2", "max" : [1, -0], "min" : [0, -1], "name" : "TEXCOORD_0"}, {"bufferView" : 1, "byteOffset" : 20, "componentType" : 5126, "count" : 1080, "type" : "VEC2", "max" : [1.0699347257614136, 0.06993460655212402], "min" : [-0.06993473321199417, -1.0699347257614136], "name" : "TEXCOORD_1"}, {"bufferView" : 0, "byteOffset" : 2592, "componentType" : 5123, "count" : 4938, "type" : "SCALAR", "max" : [4308], "min" : [0]}, {"bufferView" : 2, "byteOffset" : 0, "componentType" : 5126, "count" : 4309, "type" : "VEC3", "max" : [80.4038314819336, 77.99324798583984, 49.52043914794922], "min" : [-80.2929458618164, -60.423797607421875, -90.26006317138672], "name" : "POSITION"}, {"bufferView" : 2, "byteOffset" : 12, "componentType" : 5126, "count" : 4309, "type" : "VEC2", "max" : [0.991669237613678, -0.0083237886428833], "min" : [0.008330750279128551, -0.9916762709617615], "name" : "TEXCOORD_0"}], "asset" : {"generator" : "Aspose.3D 22.7", "version" : "2.0"}, "buffers" : [{"uri" : "data:application/octet-stream;base64,", "byteLength" : 147528}], "bufferViews" : [{"buffer" : 0, "byteOffset" : 0, "byteLength" : 12468, "target" : 34963}, {"buffer" : 0, "byteOffset" : 12472, "byteLength" : 36288, "byteStride" : 28, "target" : 34962}, {"buffer" : 0, "byteOffset" : 48764, "byteLength" : 98760, "byteStride" : 20, "target" : 34962}], "images" : [{"uri" : "data:image/jpeg;base64,"}, {"uri" : "data:image/jpeg;base64,"}], "materials" : [{"name" : "Mat", "pbrMetallicRoughness" : {"baseColorFactor" : [1, 1, 1, 1], "baseColorTexture" : {"index" : 0, "texCoord" : 0}, "metallicFactor" : 0, "roughnessFactor" : 0}, "emissiveFactor" : [0, 0, 0], "alphaMode" : "OPAQUE", "doubleSided" : false}, {"name" : "Null", "pbrMetallicRoughness" : {"baseColorFactor" : [1, 1, 1, 1], "baseColorTexture" : {"index" : 1, "texCoord" : 0}, "metallicFactor" : 0, "roughnessFactor" : 0}, "emissiveFactor" : [0, 0, 0], "alphaMode" : "OPAQUE", "doubleSided" : false}], "meshes" : [{"primitives" : [{"attributes" : {"POSITION" : 1, "TEXCOORD_0" : 2, "TEXCOORD_1" : 3}, "indices" : 0, "material" : 0, "mode" : 4}], "name" : "top-mesh"}, {"primitives" : [{"attributes" : {"POSITION" : 5, "TEXCOORD_0" : 6}, "indices" : 4, "material" : 1, "mode" : 4}], "name" : "Null-mesh"}], "nodes" : [{"matrix" : [0.01, 0, 0, 0, 0, 0.01, 0, 0, 0, 0, 0.01, 0, 0, 1.24576, 0, 1], "mesh" : 0, "name" : "top"}, {"matrix" : [0.01, 0, 0, 0, 0, 0.01, 0, 0, 0, 0, 0.01, 0, 0, 0.415254, 0, 1], "mesh" : 1, "name" : "Null"}, {"children" : [0, 1], "name" : "coffe table"}], "samplers" : [{"magFilter" : 9729, "minFilter" : 9729, "wrapS" : 10497, "wrapT" : 10497}, {"magFilter" : 9729, "minFilter" : 9729, "wrapS" : 10497, "wrapT" : 10497}], "scene" : 0, "scenes" : [{"nodes" : [2]}], "textures" : [{"sampler" : 0, "source" : 0, "name" : "922f145fcca2d4dd87186af3a90c8d3a.jpg"}, {"sampler" : 1, "source" : 1, "name" : "Null.1Surface_Color.jpg"}]}